<mxfile host="Electron" agent="Mozilla/5.0 (Windows NT 10.0; Win64; x64) AppleWebKit/537.36 (KHTML, like Gecko) draw.io/24.7.5 Chrome/126.0.6478.183 Electron/31.3.0 Safari/537.36" version="24.7.5">
  <diagram name="PÃ¡gina-1" id="jlG1TTmQw6kX0yWN-UC9">
    <mxGraphModel dx="880" dy="1711" grid="1" gridSize="10" guides="1" tooltips="1" connect="1" arrows="1" fold="1" page="1" pageScale="1" pageWidth="827" pageHeight="1169" math="0" shadow="0">
      <root>
        <mxCell id="0" />
        <mxCell id="1" parent="0" />
        <mxCell id="pJKkzwfNJmYwv5CjV2Ll-3" value="" style="edgeStyle=orthogonalEdgeStyle;rounded=0;orthogonalLoop=1;jettySize=auto;html=1;endArrow=none;endFill=0;" parent="1" source="pJKkzwfNJmYwv5CjV2Ll-1" target="pJKkzwfNJmYwv5CjV2Ll-2" edge="1">
          <mxGeometry relative="1" as="geometry" />
        </mxCell>
        <mxCell id="pJKkzwfNJmYwv5CjV2Ll-5" value="" style="edgeStyle=orthogonalEdgeStyle;rounded=0;orthogonalLoop=1;jettySize=auto;html=1;endArrow=none;endFill=0;" parent="1" source="pJKkzwfNJmYwv5CjV2Ll-1" target="pJKkzwfNJmYwv5CjV2Ll-4" edge="1">
          <mxGeometry relative="1" as="geometry" />
        </mxCell>
        <mxCell id="pJKkzwfNJmYwv5CjV2Ll-7" value="" style="edgeStyle=orthogonalEdgeStyle;rounded=0;orthogonalLoop=1;jettySize=auto;html=1;endArrow=none;endFill=0;" parent="1" source="pJKkzwfNJmYwv5CjV2Ll-1" target="pJKkzwfNJmYwv5CjV2Ll-6" edge="1">
          <mxGeometry relative="1" as="geometry" />
        </mxCell>
        <mxCell id="pJKkzwfNJmYwv5CjV2Ll-9" value="" style="edgeStyle=orthogonalEdgeStyle;rounded=0;orthogonalLoop=1;jettySize=auto;html=1;endArrow=none;endFill=0;" parent="1" source="pJKkzwfNJmYwv5CjV2Ll-1" target="pJKkzwfNJmYwv5CjV2Ll-8" edge="1">
          <mxGeometry relative="1" as="geometry" />
        </mxCell>
        <mxCell id="pJKkzwfNJmYwv5CjV2Ll-11" value="" style="edgeStyle=orthogonalEdgeStyle;rounded=0;orthogonalLoop=1;jettySize=auto;html=1;endArrow=none;endFill=0;" parent="1" source="pJKkzwfNJmYwv5CjV2Ll-1" target="pJKkzwfNJmYwv5CjV2Ll-10" edge="1">
          <mxGeometry relative="1" as="geometry" />
        </mxCell>
        <mxCell id="pJKkzwfNJmYwv5CjV2Ll-61" value="(1,1)" style="edgeLabel;html=1;align=center;verticalAlign=middle;resizable=0;points=[];" parent="pJKkzwfNJmYwv5CjV2Ll-11" vertex="1" connectable="0">
          <mxGeometry x="-0.1" y="-2" relative="1" as="geometry">
            <mxPoint as="offset" />
          </mxGeometry>
        </mxCell>
        <mxCell id="pJKkzwfNJmYwv5CjV2Ll-29" value="" style="edgeStyle=orthogonalEdgeStyle;rounded=0;orthogonalLoop=1;jettySize=auto;html=1;endArrow=none;endFill=0;" parent="1" source="pJKkzwfNJmYwv5CjV2Ll-1" target="pJKkzwfNJmYwv5CjV2Ll-28" edge="1">
          <mxGeometry relative="1" as="geometry" />
        </mxCell>
        <mxCell id="pJKkzwfNJmYwv5CjV2Ll-63" value="(N,N)" style="edgeLabel;html=1;align=center;verticalAlign=middle;resizable=0;points=[];" parent="pJKkzwfNJmYwv5CjV2Ll-29" vertex="1" connectable="0">
          <mxGeometry x="0.0571" relative="1" as="geometry">
            <mxPoint as="offset" />
          </mxGeometry>
        </mxCell>
        <mxCell id="pJKkzwfNJmYwv5CjV2Ll-48" value="" style="edgeStyle=orthogonalEdgeStyle;rounded=0;orthogonalLoop=1;jettySize=auto;html=1;endArrow=none;endFill=0;" parent="1" source="pJKkzwfNJmYwv5CjV2Ll-1" target="pJKkzwfNJmYwv5CjV2Ll-47" edge="1">
          <mxGeometry relative="1" as="geometry">
            <Array as="points">
              <mxPoint x="410" y="120" />
            </Array>
          </mxGeometry>
        </mxCell>
        <mxCell id="pJKkzwfNJmYwv5CjV2Ll-67" value="(N,N)" style="edgeLabel;html=1;align=center;verticalAlign=middle;resizable=0;points=[];" parent="pJKkzwfNJmYwv5CjV2Ll-48" vertex="1" connectable="0">
          <mxGeometry x="-0.1429" y="1" relative="1" as="geometry">
            <mxPoint as="offset" />
          </mxGeometry>
        </mxCell>
        <mxCell id="pJKkzwfNJmYwv5CjV2Ll-1" value="AUTOMOVIL" style="rounded=0;whiteSpace=wrap;html=1;fillColor=#fff2cc;strokeColor=#d6b656;gradientColor=#ffd966;" parent="1" vertex="1">
          <mxGeometry x="350" y="198" width="120" height="60" as="geometry" />
        </mxCell>
        <mxCell id="pJKkzwfNJmYwv5CjV2Ll-2" value="&lt;u&gt;MATRICULA&lt;/u&gt;" style="ellipse;whiteSpace=wrap;html=1;rounded=0;fillColor=#cce5ff;strokeColor=#36393d;" parent="1" vertex="1">
          <mxGeometry x="148" y="117" width="80" height="80" as="geometry" />
        </mxCell>
        <mxCell id="pJKkzwfNJmYwv5CjV2Ll-4" value="MARCA" style="ellipse;whiteSpace=wrap;html=1;rounded=0;fillColor=#cce5ff;strokeColor=#36393d;" parent="1" vertex="1">
          <mxGeometry x="148" y="259" width="80" height="80" as="geometry" />
        </mxCell>
        <mxCell id="pJKkzwfNJmYwv5CjV2Ll-6" value="MODELO" style="ellipse;whiteSpace=wrap;html=1;rounded=0;fillColor=#cce5ff;strokeColor=#36393d;" parent="1" vertex="1">
          <mxGeometry x="268" y="259" width="80" height="80" as="geometry" />
        </mxCell>
        <mxCell id="pJKkzwfNJmYwv5CjV2Ll-8" value="COLOR" style="ellipse;whiteSpace=wrap;html=1;rounded=0;fillColor=#cce5ff;strokeColor=#36393d;" parent="1" vertex="1">
          <mxGeometry x="268" y="117" width="80" height="80" as="geometry" />
        </mxCell>
        <mxCell id="pJKkzwfNJmYwv5CjV2Ll-13" value="" style="edgeStyle=orthogonalEdgeStyle;rounded=0;orthogonalLoop=1;jettySize=auto;html=1;endArrow=none;endFill=0;" parent="1" source="pJKkzwfNJmYwv5CjV2Ll-10" target="pJKkzwfNJmYwv5CjV2Ll-12" edge="1">
          <mxGeometry relative="1" as="geometry" />
        </mxCell>
        <mxCell id="pJKkzwfNJmYwv5CjV2Ll-62" value="(1,N)" style="edgeLabel;html=1;align=center;verticalAlign=middle;resizable=0;points=[];" parent="pJKkzwfNJmYwv5CjV2Ll-13" vertex="1" connectable="0">
          <mxGeometry x="-0.1333" y="-1" relative="1" as="geometry">
            <mxPoint as="offset" />
          </mxGeometry>
        </mxCell>
        <mxCell id="pJKkzwfNJmYwv5CjV2Ll-10" value="COMPRAR" style="rhombus;whiteSpace=wrap;html=1;rounded=0;fillColor=#cdeb8b;strokeColor=#36393d;" parent="1" vertex="1">
          <mxGeometry x="512" y="190" width="80" height="80" as="geometry" />
        </mxCell>
        <mxCell id="pJKkzwfNJmYwv5CjV2Ll-15" value="" style="edgeStyle=orthogonalEdgeStyle;rounded=0;orthogonalLoop=1;jettySize=auto;html=1;endArrow=none;endFill=0;" parent="1" source="pJKkzwfNJmYwv5CjV2Ll-12" target="pJKkzwfNJmYwv5CjV2Ll-14" edge="1">
          <mxGeometry relative="1" as="geometry">
            <Array as="points">
              <mxPoint x="779" y="230" />
            </Array>
          </mxGeometry>
        </mxCell>
        <mxCell id="pJKkzwfNJmYwv5CjV2Ll-21" value="" style="edgeStyle=orthogonalEdgeStyle;rounded=0;orthogonalLoop=1;jettySize=auto;html=1;endArrow=none;endFill=0;" parent="1" source="pJKkzwfNJmYwv5CjV2Ll-12" target="pJKkzwfNJmYwv5CjV2Ll-20" edge="1">
          <mxGeometry relative="1" as="geometry">
            <Array as="points">
              <mxPoint x="779" y="230" />
            </Array>
          </mxGeometry>
        </mxCell>
        <mxCell id="pJKkzwfNJmYwv5CjV2Ll-23" value="" style="edgeStyle=orthogonalEdgeStyle;rounded=0;orthogonalLoop=1;jettySize=auto;html=1;endArrow=none;endFill=0;" parent="1" edge="1">
          <mxGeometry relative="1" as="geometry">
            <mxPoint x="752" y="230" as="sourcePoint" />
            <mxPoint x="870" y="203.96526269427272" as="targetPoint" />
            <Array as="points">
              <mxPoint x="870" y="230" />
            </Array>
          </mxGeometry>
        </mxCell>
        <mxCell id="pJKkzwfNJmYwv5CjV2Ll-25" value="" style="edgeStyle=orthogonalEdgeStyle;rounded=0;orthogonalLoop=1;jettySize=auto;html=1;endArrow=none;endFill=0;" parent="1" source="pJKkzwfNJmYwv5CjV2Ll-12" target="pJKkzwfNJmYwv5CjV2Ll-24" edge="1">
          <mxGeometry relative="1" as="geometry" />
        </mxCell>
        <mxCell id="pJKkzwfNJmYwv5CjV2Ll-27" value="" style="edgeStyle=orthogonalEdgeStyle;rounded=0;orthogonalLoop=1;jettySize=auto;html=1;endArrow=none;endFill=0;" parent="1" source="pJKkzwfNJmYwv5CjV2Ll-12" target="pJKkzwfNJmYwv5CjV2Ll-26" edge="1">
          <mxGeometry relative="1" as="geometry">
            <Array as="points">
              <mxPoint x="870" y="230" />
            </Array>
          </mxGeometry>
        </mxCell>
        <mxCell id="pJKkzwfNJmYwv5CjV2Ll-12" value="CLIENTE" style="whiteSpace=wrap;html=1;rounded=0;fillColor=#ffcccc;strokeColor=#36393d;" parent="1" vertex="1">
          <mxGeometry x="631" y="200" width="120" height="60" as="geometry" />
        </mxCell>
        <mxCell id="pJKkzwfNJmYwv5CjV2Ll-14" value="DIRECCION" style="ellipse;whiteSpace=wrap;html=1;rounded=0;fillColor=#cce5ff;strokeColor=#36393d;" parent="1" vertex="1">
          <mxGeometry x="739" y="322" width="80" height="80" as="geometry" />
        </mxCell>
        <mxCell id="pJKkzwfNJmYwv5CjV2Ll-20" value="NOMBRE" style="ellipse;whiteSpace=wrap;html=1;rounded=0;fillColor=#cce5ff;strokeColor=#36393d;" parent="1" vertex="1">
          <mxGeometry x="739" y="50" width="80" height="80" as="geometry" />
        </mxCell>
        <mxCell id="pJKkzwfNJmYwv5CjV2Ll-22" value="&lt;u&gt;ID CLIENTE&lt;/u&gt;" style="ellipse;whiteSpace=wrap;html=1;rounded=0;fillColor=#cce5ff;strokeColor=#36393d;" parent="1" vertex="1">
          <mxGeometry x="819" y="124" width="96" height="80" as="geometry" />
        </mxCell>
        <mxCell id="pJKkzwfNJmYwv5CjV2Ll-24" value="TELEFONO" style="ellipse;whiteSpace=wrap;html=1;rounded=0;fillColor=#cce5ff;strokeColor=#36393d;" parent="1" vertex="1">
          <mxGeometry x="918" y="190" width="96" height="80" as="geometry" />
        </mxCell>
        <mxCell id="pJKkzwfNJmYwv5CjV2Ll-26" value="APELLIDO" style="ellipse;whiteSpace=wrap;html=1;rounded=0;fillColor=#cce5ff;strokeColor=#36393d;" parent="1" vertex="1">
          <mxGeometry x="822" y="263" width="96" height="80" as="geometry" />
        </mxCell>
        <mxCell id="pJKkzwfNJmYwv5CjV2Ll-31" value="" style="edgeStyle=orthogonalEdgeStyle;rounded=0;orthogonalLoop=1;jettySize=auto;html=1;endArrow=none;endFill=0;" parent="1" source="pJKkzwfNJmYwv5CjV2Ll-28" target="pJKkzwfNJmYwv5CjV2Ll-30" edge="1">
          <mxGeometry relative="1" as="geometry" />
        </mxCell>
        <mxCell id="pJKkzwfNJmYwv5CjV2Ll-64" value="(N,N)" style="edgeLabel;html=1;align=center;verticalAlign=middle;resizable=0;points=[];" parent="pJKkzwfNJmYwv5CjV2Ll-31" vertex="1" connectable="0">
          <mxGeometry x="-0.28" relative="1" as="geometry">
            <mxPoint as="offset" />
          </mxGeometry>
        </mxCell>
        <mxCell id="pJKkzwfNJmYwv5CjV2Ll-28" value="REPARAR" style="rhombus;whiteSpace=wrap;html=1;rounded=0;fillColor=#cdeb8b;strokeColor=#36393d;" parent="1" vertex="1">
          <mxGeometry x="370" y="301" width="80" height="80" as="geometry" />
        </mxCell>
        <mxCell id="pJKkzwfNJmYwv5CjV2Ll-33" value="" style="edgeStyle=orthogonalEdgeStyle;rounded=0;orthogonalLoop=1;jettySize=auto;html=1;endArrow=none;endFill=0;" parent="1" source="pJKkzwfNJmYwv5CjV2Ll-30" target="pJKkzwfNJmYwv5CjV2Ll-32" edge="1">
          <mxGeometry relative="1" as="geometry" />
        </mxCell>
        <mxCell id="pJKkzwfNJmYwv5CjV2Ll-39" value="" style="edgeStyle=orthogonalEdgeStyle;rounded=0;orthogonalLoop=1;jettySize=auto;html=1;endArrow=none;endFill=0;" parent="1" edge="1">
          <mxGeometry relative="1" as="geometry">
            <mxPoint x="350" y="444" as="sourcePoint" />
            <mxPoint x="325" y="442" as="targetPoint" />
          </mxGeometry>
        </mxCell>
        <mxCell id="pJKkzwfNJmYwv5CjV2Ll-30" value="MECANICO" style="whiteSpace=wrap;html=1;rounded=0;fillColor=#ffcccc;strokeColor=#36393d;" parent="1" vertex="1">
          <mxGeometry x="350" y="414" width="120" height="60" as="geometry" />
        </mxCell>
        <mxCell id="pJKkzwfNJmYwv5CjV2Ll-32" value="SALARIO" style="ellipse;whiteSpace=wrap;html=1;rounded=0;fillColor=#cce5ff;strokeColor=#36393d;" parent="1" vertex="1">
          <mxGeometry x="488" y="404" width="80" height="80" as="geometry" />
        </mxCell>
        <mxCell id="pJKkzwfNJmYwv5CjV2Ll-35" value="FECHA_CONTRATACION" style="ellipse;whiteSpace=wrap;html=1;rounded=0;fillColor=#cce5ff;strokeColor=#36393d;" parent="1" vertex="1">
          <mxGeometry x="477" y="510" width="150" height="80" as="geometry" />
        </mxCell>
        <mxCell id="pJKkzwfNJmYwv5CjV2Ll-38" value="&lt;u&gt;ID MECANICO&lt;/u&gt;" style="ellipse;whiteSpace=wrap;html=1;rounded=0;fillColor=#cce5ff;strokeColor=#36393d;" parent="1" vertex="1">
          <mxGeometry x="245" y="402" width="80" height="80" as="geometry" />
        </mxCell>
        <mxCell id="pJKkzwfNJmYwv5CjV2Ll-40" value="APELLIDO" style="ellipse;whiteSpace=wrap;html=1;rounded=0;fillColor=#cce5ff;strokeColor=#36393d;" parent="1" vertex="1">
          <mxGeometry x="370" y="510" width="80" height="80" as="geometry" />
        </mxCell>
        <mxCell id="pJKkzwfNJmYwv5CjV2Ll-45" value="NOMBRE" style="ellipse;whiteSpace=wrap;html=1;fillColor=#cce5ff;strokeColor=#36393d;" parent="1" vertex="1">
          <mxGeometry x="260" y="510" width="80" height="80" as="geometry" />
        </mxCell>
        <mxCell id="pJKkzwfNJmYwv5CjV2Ll-50" value="" style="edgeStyle=orthogonalEdgeStyle;rounded=0;orthogonalLoop=1;jettySize=auto;html=1;endArrow=none;endFill=0;" parent="1" source="pJKkzwfNJmYwv5CjV2Ll-47" target="pJKkzwfNJmYwv5CjV2Ll-49" edge="1">
          <mxGeometry relative="1" as="geometry" />
        </mxCell>
        <mxCell id="pJKkzwfNJmYwv5CjV2Ll-68" value="(N,N)" style="edgeLabel;html=1;align=center;verticalAlign=middle;resizable=0;points=[];" parent="pJKkzwfNJmYwv5CjV2Ll-50" vertex="1" connectable="0">
          <mxGeometry x="-0.0889" relative="1" as="geometry">
            <mxPoint x="-1" as="offset" />
          </mxGeometry>
        </mxCell>
        <mxCell id="pJKkzwfNJmYwv5CjV2Ll-47" value="GUARDAR" style="rhombus;whiteSpace=wrap;html=1;rounded=0;fillColor=#cdeb8b;strokeColor=#36393d;" parent="1" vertex="1">
          <mxGeometry x="473" y="80" width="80" height="80" as="geometry" />
        </mxCell>
        <mxCell id="pJKkzwfNJmYwv5CjV2Ll-52" value="" style="edgeStyle=orthogonalEdgeStyle;rounded=0;orthogonalLoop=1;jettySize=auto;html=1;endArrow=none;endFill=0;" parent="1" source="pJKkzwfNJmYwv5CjV2Ll-49" target="pJKkzwfNJmYwv5CjV2Ll-51" edge="1">
          <mxGeometry relative="1" as="geometry" />
        </mxCell>
        <mxCell id="pJKkzwfNJmYwv5CjV2Ll-54" value="" style="edgeStyle=orthogonalEdgeStyle;rounded=0;orthogonalLoop=1;jettySize=auto;html=1;endArrow=none;endFill=0;" parent="1" source="pJKkzwfNJmYwv5CjV2Ll-49" target="pJKkzwfNJmYwv5CjV2Ll-53" edge="1">
          <mxGeometry relative="1" as="geometry" />
        </mxCell>
        <mxCell id="pJKkzwfNJmYwv5CjV2Ll-57" value="" style="edgeStyle=orthogonalEdgeStyle;rounded=0;orthogonalLoop=1;jettySize=auto;html=1;endArrow=none;endFill=0;" parent="1" source="pJKkzwfNJmYwv5CjV2Ll-49" target="pJKkzwfNJmYwv5CjV2Ll-56" edge="1">
          <mxGeometry relative="1" as="geometry" />
        </mxCell>
        <mxCell id="pJKkzwfNJmYwv5CjV2Ll-59" value="" style="edgeStyle=orthogonalEdgeStyle;rounded=0;orthogonalLoop=1;jettySize=auto;html=1;endArrow=none;endFill=0;" parent="1" source="pJKkzwfNJmYwv5CjV2Ll-49" target="pJKkzwfNJmYwv5CjV2Ll-58" edge="1">
          <mxGeometry relative="1" as="geometry" />
        </mxCell>
        <mxCell id="pJKkzwfNJmYwv5CjV2Ll-49" value="DATOS DE REPARACION" style="whiteSpace=wrap;html=1;rounded=0;fillColor=#ffcccc;strokeColor=#36393d;" parent="1" vertex="1">
          <mxGeometry x="453" y="-16" width="120" height="60" as="geometry" />
        </mxCell>
        <mxCell id="pJKkzwfNJmYwv5CjV2Ll-51" value="&lt;u&gt;ID MECANICO&lt;/u&gt;" style="ellipse;whiteSpace=wrap;html=1;rounded=0;fillColor=#cce5ff;strokeColor=#36393d;" parent="1" vertex="1">
          <mxGeometry x="347" y="24" width="80" height="80" as="geometry" />
        </mxCell>
        <mxCell id="pJKkzwfNJmYwv5CjV2Ll-53" value="TIEMPO DE REPARACION" style="ellipse;whiteSpace=wrap;html=1;rounded=0;fillColor=#cce5ff;strokeColor=#36393d;" parent="1" vertex="1">
          <mxGeometry x="613" y="28" width="80" height="80" as="geometry" />
        </mxCell>
        <mxCell id="pJKkzwfNJmYwv5CjV2Ll-56" value="&lt;u&gt;ID CLIENTE&lt;/u&gt;" style="ellipse;whiteSpace=wrap;html=1;rounded=0;fillColor=#cce5ff;strokeColor=#36393d;" parent="1" vertex="1">
          <mxGeometry x="347" y="-68" width="80" height="80" as="geometry" />
        </mxCell>
        <mxCell id="pJKkzwfNJmYwv5CjV2Ll-58" value="FECHA_REPARACION" style="ellipse;whiteSpace=wrap;html=1;rounded=0;fillColor=#cce5ff;strokeColor=#36393d;" parent="1" vertex="1">
          <mxGeometry x="613" y="-81" width="150" height="80" as="geometry" />
        </mxCell>
        <mxCell id="XObjxQ-pl-rVOmm_u2L0-1" style="edgeStyle=orthogonalEdgeStyle;rounded=0;orthogonalLoop=1;jettySize=auto;html=1;endArrow=none;endFill=0;" edge="1" parent="1" target="pJKkzwfNJmYwv5CjV2Ll-40">
          <mxGeometry relative="1" as="geometry">
            <mxPoint x="409.5" y="474" as="sourcePoint" />
            <mxPoint x="409.5" y="504" as="targetPoint" />
          </mxGeometry>
        </mxCell>
        <mxCell id="XObjxQ-pl-rVOmm_u2L0-4" value="" style="endArrow=none;html=1;rounded=0;entryX=0.75;entryY=1;entryDx=0;entryDy=0;" edge="1" parent="1" source="pJKkzwfNJmYwv5CjV2Ll-35" target="pJKkzwfNJmYwv5CjV2Ll-30">
          <mxGeometry width="50" height="50" relative="1" as="geometry">
            <mxPoint x="590" y="500" as="sourcePoint" />
            <mxPoint x="640" y="450" as="targetPoint" />
            <Array as="points">
              <mxPoint x="500" y="520" />
            </Array>
          </mxGeometry>
        </mxCell>
        <mxCell id="XObjxQ-pl-rVOmm_u2L0-5" value="" style="endArrow=none;html=1;rounded=0;entryX=0;entryY=1;entryDx=0;entryDy=0;" edge="1" parent="1" target="pJKkzwfNJmYwv5CjV2Ll-30">
          <mxGeometry width="50" height="50" relative="1" as="geometry">
            <mxPoint x="310" y="510" as="sourcePoint" />
            <mxPoint x="640" y="450" as="targetPoint" />
            <Array as="points">
              <mxPoint x="310" y="510" />
            </Array>
          </mxGeometry>
        </mxCell>
      </root>
    </mxGraphModel>
  </diagram>
</mxfile>
